<mxfile host="app.diagrams.net" modified="2024-01-04T11:28:16.342Z" agent="Mozilla/5.0 (X11; Ubuntu; Linux x86_64; rv:109.0) Gecko/20100101 Firefox/119.0" version="22.1.16" etag="YuRegzSED1sG9no4xTMW" type="github">
  <diagram name="Page-1" id="1X6jsxfeRZH14r-SOtIA">
    <mxGraphModel>
      <root>
        <mxCell id="0" />
        <mxCell id="1" parent="0" />
      </root>
    </mxGraphModel>
  </diagram>
</mxfile>
